<?xml version="1.0" encoding="utf-8"?>
<!-- Generator: Adobe Illustrator 24.3.0, SVG Export Plug-In . SVG Version: 6.00 Build 0)  -->
<svg version="1.1" xmlns="http://www.w3.org/2000/svg" xmlns:xlink="http://www.w3.org/1999/xlink" x="0px" y="0px"
	 viewBox="0 0 545.3 94.8" style="enable-background:new 0 0 545.3 94.8;" xml:space="preserve">
<style type="text/css">
	.st0{fill:#CCCCCC;}
	.st1{fill:#FF4C29;}
</style>
<g id="圖層_2">
</g>
<g id="圖層_1">
	<g>
		<path class="st0" d="M183.9,38.2V72H171V38.2h-9.2V27.6h31.3v10.6H183.9z"/>
		<path class="st0" d="M219,72l-2.5-8.8h-11.9L202,72h-11.1l13.7-44.4H219L233,72H219z M207,53.6h7.2l-3.6-12.9L207,53.6z"/>
		<path class="st0" d="M250.7,27.6V72h-13.6V27.6H250.7z"/>
		<path class="st0" d="M314.1,27.6L302.3,72h-11.5l-6.2-24.5L278.8,72h-11.9L255,27.6h12.8l6.2,25.6l6.1-25.6h10.7l6.6,25.6
			l6.2-25.6H314.1z"/>
		<path class="st0" d="M340.7,72l-2.5-8.8h-11.9l-2.7,8.8h-11.1l13.7-44.4h14.4l14,44.4H340.7z M328.6,53.6h7.2l-3.6-12.9
			L328.6,53.6z"/>
		<path class="st0" d="M396.7,72h-11.1l-12.2-19.6c-1.6-2.5-3.1-5.6-4.7-9.2c0.7,2.9,1.1,5.3,1.1,7.3V72h-11.1V27.6h12.9L382,43.9
			c2.1,3.2,3.6,6.1,4.7,8.5c-0.7-3.8-1-7.7-1-11.6V27.6h11.1V72H396.7z"/>
		<path class="st0" d="M421.1,72V27.6h22.5c4.7,0,8.1,1.2,10.2,3.5s3.2,5.1,3.2,8.1c0,2.2-0.6,4.2-1.9,6c-1.2,1.8-3.1,3-5.6,3.7
			c5.7,1.4,8.6,4.8,8.6,10.3c0,3.3-1,6.2-3,8.8s-6.4,3.9-13,3.9L421.1,72L421.1,72z M433.7,44.6h6.3c1.6,0,2.7-0.4,3.4-1.2
			c0.6-0.8,1-1.7,1-2.6c0-2.5-1.5-3.7-4.6-3.7h-6.1L433.7,44.6L433.7,44.6z M433.7,62.1h6.6c1.6,0,2.9-0.4,3.6-1.2
			c0.8-0.8,1.2-1.7,1.2-2.7s-0.4-2-1.1-2.8c-0.7-0.9-2.1-1.3-4.1-1.3h-6.2V62.1z"/>
		<path class="st0" d="M499.9,27.6V57c0,5.6-1.7,9.6-5,12s-7.6,3.7-12.9,3.7c-5.6,0-10.1-1.2-13.5-3.5s-5.1-6.2-5.1-11.5V27.6h13.9
			v28.5c0,2.1,0.4,3.7,1.3,4.7s2.3,1.5,4.3,1.5c1.6,0,3-0.4,4-1.1c1-0.7,1.7-1.5,1.9-2.4c0.2-0.9,0.3-2.6,0.3-5.2v-26
			C489.1,27.6,499.9,27.6,499.9,27.6z"/>
		<path class="st0" d="M502.6,59.2l12.7-2.3c1.1,3.6,3.8,5.4,8.2,5.4c3.4,0,5.1-0.9,5.1-2.7c0-1-0.4-1.7-1.2-2.2s-2.2-1-4.2-1.4
			c-7.8-1.5-12.8-3.4-15-5.9c-2.2-2.4-3.3-5.2-3.3-8.5c0-4.2,1.6-7.7,4.8-10.4c3.2-2.8,7.7-4.2,13.7-4.2c9,0,15,3.6,17.9,10.9
			L530,41.2c-1.2-3-3.5-4.5-7.1-4.5c-3,0-4.5,0.9-4.5,2.8c0,0.8,0.3,1.5,1,1.9c0.7,0.5,2,0.9,3.9,1.3c5.3,1.1,9.1,2.1,11.3,3
			s4.1,2.3,5.6,4.4c1.5,2.1,2.2,4.6,2.2,7.4c0,4.5-1.8,8.1-5.5,10.9c-3.6,2.8-8.4,4.2-14.3,4.2C511.9,72.7,505.2,68.2,502.6,59.2z"
			/>
	</g>
	<g>
		<path class="st1" d="M101.3,52V31.7c0-0.9-0.7-1.6-1.6-1.6h-17c-0.9,0-1.6,0.7-1.6,1.6V52c0,0.9,0.7,1.6,1.6,1.6h17
			C100.5,53.6,101.3,52.8,101.3,52z"/>
		<path class="st1" d="M107.8,64.9H95.7c-0.2,0-0.4,0.2-0.4,0.4s0.2,0.4,0.4,0.4h12.1c0.2,0,0.4-0.2,0.4-0.4S108,64.9,107.8,64.9z"
			/>
		<path class="st1" d="M86.7,60.6h-3.2c-1.4,0-2.5,1.1-2.5,2.5s1.1,2.5,2.5,2.5h3.2c1.4,0,2.5-1.1,2.5-2.5
			C89.2,61.7,88.1,60.6,86.7,60.6z"/>
		<path class="st1" d="M95.6,27H108c0.6,0,1.1-0.5,1.1-1.1v-1.8c0-0.6-0.5-1.1-1.1-1.1H95.6c-0.6,0-1.1,0.5-1.1,1.1v1.8
			C94.5,26.5,95,27,95.6,27z"/>
		<rect x="76.3" y="45.1" class="st1" width="1.3" height="1.8"/>
		<path class="st1" d="M107.8,62.8H95.7c-0.2,0-0.4,0.2-0.4,0.4s0.2,0.4,0.4,0.4h12.1c0.2,0,0.4-0.2,0.4-0.4S108,62.8,107.8,62.8z"
			/>
		<rect x="126" y="45.1" class="st1" width="1.3" height="1.8"/>
		<path class="st1" d="M107.8,60.6H95.7c-0.2,0-0.4,0.2-0.4,0.4s0.2,0.4,0.4,0.4h12.1c0.2,0,0.4-0.2,0.4-0.4S108,60.6,107.8,60.6z"
			/>
		<path class="st1" d="M120.9,30.1h-17c-0.9,0-1.6,0.7-1.6,1.6V52c0,0.9,0.7,1.6,1.6,1.6h17c0.9,0,1.6-0.7,1.6-1.6V31.7
			C122.5,30.8,121.8,30.1,120.9,30.1z"/>
		<path class="st1" d="M129.1,18.9C113.5,4,88.8,4.6,73.8,20.2C68.4,25.9,65,32.8,63.7,40l-13,7.9l13.2,7.2
			c1.5,7.5,5.3,14.6,11.2,20.3c15.6,14.9,40.3,14.3,55.2-1.2C145.2,58.5,144.6,33.8,129.1,18.9z M131.6,50.6h-3.1
			c-0.7,0-1.2-0.5-1.2-1.2v-1.5H126v17.6c0,3-2.4,5.4-5.4,5.4h-0.7v2.2c0,0.6-0.5,1.1-1.1,1.1h-5.3c-0.6,0-1.1-0.5-1.1-1.1v-2.2
			H91.1v2.2c0,0.6-0.5,1.1-1.1,1.1h-5.3c-0.6,0-1.1-0.5-1.1-1.1v-2.2H83c-3,0-5.4-2.4-5.4-5.4V47.9h-1.3v1.5c0,0.7-0.5,1.2-1.2,1.2
			H72c-0.7,0-1.2-0.5-1.2-1.2v-6.7c0-0.7,0.5-1.2,1.2-1.2h3.1c0.7,0,1.2,0.5,1.2,1.2v1.5h1.3V26.5c0-3,2.4-5.4,5.4-5.4h37.6
			c3,0,5.4,2.4,5.4,5.4v17.6h1.3v-1.5c0-0.7,0.5-1.2,1.2-1.2h3.1c0.7,0,1.2,0.5,1.2,1.2v6.7C132.8,50.1,132.2,50.6,131.6,50.6z"/>
		<path class="st1" d="M120,60.6h-3.2c-1.4,0-2.5,1.1-2.5,2.5s1.1,2.5,2.5,2.5h3.2c1.4,0,2.5-1.1,2.5-2.5
			C122.5,61.7,121.4,60.6,120,60.6z"/>
	</g>
	<g>
		<path class="st1" d="M17.4,69.5c0.7,0.9,1.3,1.7,1.9,2.5c-5,0.8-8.4,2.3-8.4,4.2c0,2.6,6.8,4.7,15.2,4.7s15.2-2.1,15.2-4.7
			c0-1.8-3.4-3.4-8.4-4.2c0.6-0.8,1.2-1.6,1.9-2.5c7,1.3,11.9,4.1,11.9,7.3c0,4.5-9.2,8.1-20.6,8.1S5.5,81.3,5.5,76.8
			C5.6,73.6,10.4,70.8,17.4,69.5z"/>
		<path class="st1" d="M26.1,75.9c0,0,20.6-22.7,20.6-37.7c0-11.4-9.2-20.6-20.6-20.6S5.5,26.8,5.5,38.2
			C5.6,53.2,26.1,75.9,26.1,75.9z M26.1,46.2c-4.9,0-8.8-4-8.8-8.8c0-4.9,4-8.8,8.8-8.8s8.8,4,8.8,8.8C35,42.3,31,46.2,26.1,46.2z"
			/>
	</g>
</g>
</svg>
