<?xml version="1.0" encoding="utf-8"?>
<!-- Generator: Adobe Illustrator 24.3.0, SVG Export Plug-In . SVG Version: 6.00 Build 0)  -->
<svg version="1.1" id="圖層_1" xmlns="http://www.w3.org/2000/svg" xmlns:xlink="http://www.w3.org/1999/xlink" x="0px" y="0px"
	 viewBox="0 0 265.4 372.9" style="enable-background:new 0 0 265.4 372.9;" xml:space="preserve">
<style type="text/css">
	.st0{fill:#FFFFFF;}
</style>
<g>
	<path class="st0" d="M164.6,97.8h-64.3c-3.6,0-6.4-2.9-6.4-6.4V14.2c0-3.6,2.9-6.4,6.4-6.4h64.3c3.6,0,6.4,2.9,6.4,6.4v77.1
		C171,94.9,168.1,97.8,164.6,97.8z M106.7,84.9h51.4V20.6h-51.4V84.9z"/>
</g>
<g>
	<path class="st0" d="M228.9,187.8h-19.3c-3.6,0-6.4-2.9-6.4-6.4c0-3.6,2.9-6.4,6.4-6.4h12.9v-57.9c0-24.8-20.2-45-45-45h-12.9
		c-3.6,0-6.4-2.9-6.4-6.4s2.9-6.4,6.4-6.4h12.9c31.9,0,57.9,26,57.9,57.9v64.3C235.3,184.9,232.4,187.8,228.9,187.8z"/>
</g>
<g>
	<path class="st0" d="M55.3,187.8H36c-3.6,0-6.4-2.9-6.4-6.4v-64.3c0-31.9,26-57.9,57.9-57.9h12.9c3.6,0,6.4,2.9,6.4,6.4
		s-2.9,6.4-6.4,6.4H87.5c-24.8,0-45,20.2-45,45v57.9h12.9c3.6,0,6.4,2.9,6.4,6.4C61.7,184.9,58.9,187.8,55.3,187.8z"/>
</g>
<g>
	<path class="st0" d="M254.6,213.5h-45c-3.6,0-6.4-2.9-6.4-6.4c0-3.6,2.9-6.4,6.4-6.4h38.6v-83.6c0-39-31.7-70.7-70.7-70.7h-12.9
		c-3.6,0-6.4-2.9-6.4-6.4s2.9-6.4,6.4-6.4h12.9c46.1,0,83.6,37.5,83.6,83.6v90C261,210.6,258.1,213.5,254.6,213.5z"/>
</g>
<g>
	<path class="st0" d="M55.3,213.5h-45c-3.6,0-6.4-2.9-6.4-6.4v-90c0-46.1,37.5-83.6,83.6-83.6h12.9c3.6,0,6.4,2.9,6.4,6.4
		s-2.9,6.4-6.4,6.4H87.5c-39,0-70.7,31.7-70.7,70.7v83.6h38.6c3.6,0,6.4,2.9,6.4,6.4C61.7,210.6,58.9,213.5,55.3,213.5z"/>
</g>
<g>
	<path class="st0" d="M74.6,239.2c-14.2,0-25.7-11.5-25.7-25.7v-38.6c0-14.2,11.5-25.7,25.7-25.7s25.7,11.5,25.7,25.7v38.6
		C100.3,227.7,88.8,239.2,74.6,239.2z M74.6,162.1c-7.1,0-12.9,5.8-12.9,12.9v38.6c0,7.1,5.8,12.9,12.9,12.9
		c7.1,0,12.9-5.8,12.9-12.9v-38.6C87.5,167.8,81.7,162.1,74.6,162.1z"/>
</g>
<g>
	<path class="st0" d="M113.2,239.2c-14.2,0-25.7-11.5-25.7-25.7v-51.4c0-14.2,11.5-25.7,25.7-25.7s25.7,11.5,25.7,25.7v51.4
		C138.9,227.7,127.3,239.2,113.2,239.2z M113.2,149.2c-7.1,0-12.9,5.8-12.9,12.9v51.4c0,7.1,5.8,12.9,12.9,12.9s12.9-5.8,12.9-12.9
		v-51.4C126,155,120.3,149.2,113.2,149.2z"/>
</g>
<g>
	<path class="st0" d="M151.7,239.2c-14.2,0-25.7-11.5-25.7-25.7v-51.4c0-14.2,11.5-25.7,25.7-25.7c14.2,0,25.7,11.5,25.7,25.7v51.4
		c0,3.6-2.9,6.4-6.4,6.4c-3.6,0-6.4-2.9-6.4-6.4v-51.4c0-7.1-5.8-12.9-12.9-12.9c-7.1,0-12.9,5.8-12.9,12.9v51.4
		c0,7.1,5.8,12.9,12.9,12.9c3.6,0,6.4,2.9,6.4,6.4C158.2,236.3,155.3,239.2,151.7,239.2z"/>
</g>
<g>
	<path class="st0" d="M209.6,226.3c-3.6,0-6.4-2.9-6.4-6.4v-57.9c0-7.1-5.8-12.9-12.9-12.9c-7.1,0-12.9,5.8-12.9,12.9v57.9
		c0,3.6-2.9,6.4-6.4,6.4c-3.6,0-6.4-2.9-6.4-6.4v-57.9c0-14.2,11.5-25.7,25.7-25.7c14.2,0,25.7,11.5,25.7,25.7v57.9
		C216,223.5,213.1,226.3,209.6,226.3z"/>
</g>
<g>
	<path class="st0" d="M203.2,367.8c-3.6,0-6.4-2.9-6.4-6.4v-51.4c0-1.6,0.6-3.2,1.7-4.4l20-21.4c0.4-0.4,0.7-0.7,1.1-1
		c1.8-1.2,2.9-3.2,2.9-5.3v-44.5c0-3.5-2.9-6.4-6.4-6.4l-45.1-0.5c-7,0-12.8,5.8-12.8,12.9c0,7.1,5.8,12.9,12.9,12.9h19.3
		c3.6,0,6.4,2.9,6.4,6.4c0,3.6-2.9,6.4-6.4,6.4H171c-14.2,0-25.7-11.5-25.7-25.7c0-14.2,11.5-25.7,25.7-25.7l45.1,0.5
		c10.6,0,19.2,8.7,19.2,19.3v44.5c0,6.2-2.9,12-7.9,15.6l-17.8,19.1v48.9C209.6,364.9,206.7,367.8,203.2,367.8z"/>
</g>
<g>
	<path class="st0" d="M87.5,367.8c-3.6,0-6.4-2.9-6.4-6.4v-48.8l-16.3-16.3c-6.1-6.1-9.4-14.1-9.4-22.7v-40.8c0-3.6,2.9-6.4,6.4-6.4
		s6.4,2.9,6.4,6.4v40.8c0,5.1,2,10,5.7,13.6L92,305.4c1.2,1.2,1.9,2.8,1.9,4.5v51.4C93.9,364.9,91,367.8,87.5,367.8z"/>
</g>
</svg>
